<svg xmlns="http://www.w3.org/2000/svg" viewBox="0 0 44.34 91.97" id="guitar"><g data-name="Layer 2"><g data-name="Musical Instruments"><circle cx="24.65" cy="57.59" r="6" fill="#9797ff"></circle><circle cx="22.17" cy="60.07" r="6" fill="none" stroke="#4b4668" stroke-linecap="round" stroke-linejoin="round" stroke-width="3"></circle><path fill="none" stroke="#4b4668" stroke-linecap="round" stroke-linejoin="round" stroke-width="3" d="M28.17 17.5h-12l6-16h6v16zM15.22 78.96h5M24 78.96h1.5M20.17 53.33v-35M24.17 53.33v-23M24.17 21.33v-3M24.17 25.6v.05M40.45 70l-4.26-6.07a8 8 0 0 1-.79-7.79l3.72-8.55a1 1 0 0 0-1.56-1.16 14.58 14.58 0 0 1-9.31 3.38c-4.65 0-8.91-2.37-12.18-6.3a5.7 5.7 0 0 0-4.39-2h-.16A6.15 6.15 0 0 0 6 50.27L8.71 56A8 8 0 0 1 8 64.09L3.89 70a13 13 0 0 0 10.63 20.47h15.3A13 13 0 0 0 40.45 70zM18.93 12h3M20.93 7h2"></path></g></g></svg>